<svg width="10" height="4" viewBox="0 0 10 4" fill="none" xmlns="http://www.w3.org/2000/svg">
<path d="M5.22949 3.92825L9.90549 0.419416C9.96995 0.371763 10 0.309924 10 0.247357C10 0.18479 9.96995 0.122224 9.90549 0.0752985L9.89968 0.0709333C9.83909 0.0247358 9.7567 0 9.67092 0H7.40174C7.3145 0 7.23307 0.0247358 7.17249 0.0709333L5.00121 1.70022L2.82993 0.0709333C2.7679 0.0247358 2.68502 0 2.60069 0H0.331508C0.2433 0 0.162361 0.0247358 0.101294 0.0709333L0.0949935 0.0752985C0.0329569 0.120041 0 0.183335 0 0.247357C0 0.311379 0.0329569 0.373946 0.0949935 0.419416L4.771 3.92825C4.89895 4.02392 5.10348 4.02392 5.22949 3.92825Z" fill="#18A0FB"/>
</svg>
