<svg width="20" height="21" viewBox="0 0 20 21" fill="none" xmlns="http://www.w3.org/2000/svg">
<path d="M12.6726 2.00507L16.0059 5.50137C16.3064 5.8166 16.3298 6.31286 16.0759 6.65626L16.0066 6.73873L12.6733 10.2433C12.348 10.5852 11.8204 10.5856 11.4947 10.2441C11.1941 9.92891 11.1707 9.43259 11.4247 9.08917L11.494 9.00669L13.4028 6.99999L4.58305 7C4.15569 7 3.80346 6.66221 3.75532 6.22704L3.74972 6.125C3.74972 5.67627 4.07142 5.30643 4.48587 5.25589L4.58305 5.25L13.4086 5.24999L11.4947 3.24316C11.1941 2.9279 11.1708 2.43159 11.4248 2.08819L11.494 2.00572C11.7943 1.69013 12.267 1.66561 12.594 1.93232L12.6726 2.00507L16.0059 5.50137L12.6726 2.00507ZM16.242 14.773L16.2476 14.875C16.2476 15.3237 15.9259 15.6936 15.5115 15.7441L15.4143 15.75L6.59445 15.75L8.50593 17.756C8.80647 18.0713 8.8298 18.5676 8.57577 18.911L8.50648 18.9934C8.20622 19.309 7.73354 19.3335 7.40651 19.0668L7.32797 18.994L3.99464 15.4973C3.69409 15.182 3.67076 14.6857 3.9248 14.3423L3.99408 14.2599L7.32742 10.7566C7.6527 10.4147 8.18034 10.4144 8.50593 10.756C8.80647 11.0713 8.8298 11.5676 8.57577 11.911L8.50648 11.9934L6.59778 14L15.4143 14C15.8416 14 16.1939 14.3378 16.242 14.773L16.2476 14.875L16.242 14.773Z" fill="#18A0FB"/>
</svg>
