<svg width="39" height="36" viewBox="0 0 39 36" fill="none" xmlns="http://www.w3.org/2000/svg">
<path d="M9.50625 14.2031C9.27773 13.9078 9.18633 13.725 9.23203 13.6547C9.2625 13.5844 9.47578 13.5563 9.82617 13.5844C10.1766 13.6125 10.466 13.6547 10.7098 13.7109C10.9383 13.7672 11.1363 13.8516 11.2887 13.95C11.441 14.0484 11.5629 14.1609 11.6391 14.3156C11.7305 14.4563 11.7914 14.6391 11.8523 14.8359C11.959 15.2297 11.9285 15.4969 11.7762 15.6375C11.6086 15.7781 11.3801 15.75 11.0754 15.5531C10.7555 15.3563 10.4812 15.1594 10.2375 14.9625C9.97852 14.7797 9.73477 14.5125 9.50625 14.2031ZM6.20039 26.7328C6.93164 26.4375 7.57148 26.1422 8.11992 25.8328C8.65312 25.5375 9.12539 25.2141 9.53672 24.8766C9.93281 24.5531 10.2984 24.1875 10.6031 23.7938C10.9078 23.4141 11.182 22.9781 11.4258 22.5C11.6238 22.6688 11.8066 22.8375 12.0047 22.9922C12.1875 23.1469 12.3855 23.3016 12.5836 23.4703C12.7816 23.6391 13.0102 23.8078 13.2387 24.0047C13.4672 24.2016 13.7414 24.3984 14.0461 24.6375C14.1527 24.7078 14.2594 24.7641 14.366 24.7781C14.4727 24.7922 14.625 24.7781 14.8383 24.6938C15.0363 24.6234 15.2953 24.4969 15.6152 24.3C15.9352 24.1172 16.3313 23.8641 16.8188 23.5406C17.0625 23.3859 17.1844 23.2594 17.1691 23.1609C17.1539 23.0625 17.0168 23.0203 16.7578 23.0344C16.2855 23.0484 15.859 23.0484 15.4934 23.0203C15.1125 22.9922 14.7316 22.9359 14.366 22.8234C14.0004 22.7109 13.6195 22.5563 13.2234 22.3453C12.8273 22.1344 12.3703 21.8391 11.8371 21.4734C11.9895 20.925 12.1113 20.3484 12.2027 19.7297C12.2484 19.3781 12.2941 19.125 12.3246 18.9422C12.3551 18.7734 12.4008 18.6047 12.4617 18.4781C12.5074 18.3656 12.5227 18.2813 12.5379 18.2109C12.5531 18.1406 12.5227 18.0703 12.477 17.9859C12.416 17.9156 12.3246 17.8313 12.1875 17.7469C12.0504 17.6625 11.8523 17.55 11.5934 17.4234C11.959 17.2969 12.3703 17.1844 12.7969 17.0578C13.2082 16.9313 13.6652 16.8047 14.1375 16.6781C14.5945 16.5516 14.823 16.4109 14.8383 16.2422C14.8535 16.0734 14.7012 15.9188 14.3508 15.75C14.1223 15.6375 13.909 15.5953 13.6957 15.6234C13.4824 15.6516 13.2082 15.75 12.873 15.9328C12.7816 15.9891 12.5988 16.0594 12.3551 16.1578C12.0961 16.2563 11.8066 16.3688 11.441 16.5094C11.0754 16.65 10.6793 16.7906 10.2527 16.9453C9.81094 17.1 9.36914 17.2547 8.92734 17.3953C8.48555 17.55 8.05898 17.6766 7.67813 17.7891C7.28203 17.9016 6.97734 17.9859 6.74883 18.0141C6.16992 18.1266 5.86523 18.2391 5.85 18.3516C5.85 18.4641 6.07852 18.5766 6.52031 18.6891C6.70312 18.7313 6.8707 18.7734 6.99258 18.7734C7.11445 18.7875 7.25156 18.7875 7.37344 18.7734C7.49531 18.7594 7.61719 18.7313 7.73906 18.7031C7.86094 18.6609 7.99805 18.6047 8.16562 18.5484C8.40937 18.4359 8.75977 18.3094 9.2168 18.1547C9.65859 18.0141 10.2223 17.8172 10.923 17.5922C11.0602 17.9719 11.1363 18.4359 11.1363 18.9703C11.1363 19.5047 11.0754 20.1094 10.923 20.7984C10.725 20.6438 10.5117 20.475 10.2832 20.2922C10.0547 20.1094 9.84141 19.9266 9.62813 19.7438C9.38438 19.5328 9.14062 19.3922 8.91211 19.3219C8.66836 19.2516 8.39414 19.2516 8.07422 19.3219C7.57148 19.4484 7.3125 19.5891 7.32773 19.7578C7.32773 19.9266 7.52578 20.0109 7.90664 20.025C8.04375 20.0391 8.18086 20.0672 8.31797 20.1094C8.45508 20.1516 8.60742 20.2359 8.80547 20.3625C9.00352 20.4891 9.24727 20.6719 9.52148 20.8969C9.7957 21.1219 10.1613 21.4172 10.5879 21.7828C10.4051 22.1906 10.1918 22.5703 9.96328 22.9078C9.73477 23.2594 9.44531 23.6109 9.12539 23.9344C8.79023 24.2719 8.40938 24.6094 7.95234 24.9469C7.49531 25.2984 6.94688 25.6641 6.30703 26.0438C5.65195 26.4375 5.3168 26.7047 5.3168 26.8313C5.33203 27.0141 5.63672 26.9578 6.20039 26.7328ZM38.1621 11.5031V34.7484L21.1605 29.6297L1.59961 35.6344V10.7016L6.15469 9.29532V1.46251L18.525 5.49844L35.2371 0.365631V10.6453L38.1621 11.5031ZM18.9211 7.11563L3.39727 11.8969V33.3L18.9211 28.5328V7.11563ZM33.4242 10.1109V2.67188L21.0387 6.46876L33.4242 10.1109ZM34.582 28.3922L29.9355 12.9375L26.8125 12.0375L22.1051 24.8063L24.9844 25.6359L25.868 23.0063L30.7277 24.4125L31.5961 27.5484L34.582 28.3922ZM26.6297 20.7703L30.0117 21.7406L28.3512 15.7078L26.6297 20.7703Z" fill="white"/>
</svg>
