<svg width="20" height="18" viewBox="0 0 20 18" fill="none" xmlns="http://www.w3.org/2000/svg">
<path d="M12.5184 17.8347L5.83566 13.5063H1.91521C0.851204 13.5063 0 12.704 0 11.7065V6.23346C0 5.2397 0.851204 4.43364 1.91521 4.43364H5.83157L12.5184 0.142063C13.4065 -0.295929 13.8689 0.388663 13.8403 0.716237V17.2201C13.9016 17.5844 13.2264 18.3316 12.5184 17.8347ZM1.91521 5.96478C1.78835 5.96478 1.70241 6.07887 1.70241 6.27027V11.747C1.70241 11.9016 1.82927 12.0525 1.91521 12.0525H6.08939C6.26126 12.0525 6.42905 12.0893 6.55591 12.2071L12.1338 15.803V2.21056L6.55591 5.81019C6.42905 5.88748 6.25717 5.96478 6.08939 5.96478H1.91521Z" fill="white"/>
<path d="M18.264 14.7724C17.8384 14.6583 17.5397 14.2756 17.6665 13.8523C19.2012 8.33874 17.7075 4.16494 17.6665 4.12814C17.5397 3.74536 17.7525 3.32577 18.1781 3.17118C18.6037 3.05708 19.0702 3.24847 19.2421 3.63126C19.328 3.82265 20.9036 8.26513 19.2421 14.1983C19.1602 14.581 18.7428 14.9233 18.264 14.7724Z" fill="white"/>
<path d="M15.7554 11.8611C15.3298 11.747 15.0311 11.3642 15.1579 10.9409C15.7554 8.75834 15.1989 7.07263 15.1579 7.03583C15.0311 6.65305 15.2439 6.23346 15.7104 6.07887C16.136 5.96478 16.6025 6.15617 16.7744 6.53895C16.8153 6.61624 17.5397 8.64424 16.7744 11.2869C16.6885 11.6697 16.2956 11.9936 15.7554 11.8611Z" fill="white"/>
</svg>
